# xmcd
#
# Track frame offsets:
#	150
#	17886
#	37038
#	55640
#	86975
#	104515
#	123583
#	142052
#	159087
#	172595
#	192717
#	214438
#	233083
#	250997
#	266437
#	284159
#	318217
#	333851
#
# Disc length: 4599
#
# Revision: 2
# Processed by: cddbd v1.5.1PL0 Copyright (c) Steve Scherf et al.
# Submitted via: CDex 1.50Beta5
# Normalized: r1:DSETVAR1,TDELIM( - )
#
DISCID=0c11f512
DTITLE=Various Artist - The Matrix Reloaded
DYEAR=2003
DGENRE=Soundtrack -> General Soundtrack
TTITLE0=Machine Head - From This Day
TTITLE1=Korn - Freak O N A Leash
TTITLE2=Tiamat - Brighter Tan The Sun
TTITLE3=Propellerbeads - Crash!
TTITLE4=Skunk Anansie - Lately
TTITLE5=Prodigy and Tom Morello - One Man Army
TTITLE6=Ministry - Step
TTITLE7=Marilyn Manson - The Dope Show
TTITLE8=The Offspring - The Kids Aren´t All Right
TTITLE9=Rammstein - Stripped
TTITLE10=Limp Bizkit - Nookie
TTITLE11=Freddy Fresh& Factory Slim - Badder Badder Sshwing
TTITLE12=Red Hot Chili Peppers - Around The World
TTITLE13=Aerosmith - Falling In Love
TTITLE14=Chemical Brothers - Let Forever Be
TTITLE15=Crystal Method - Trip Like I Do
TTITLE16=Guns `n´Roses - Down On The Farm
TTITLE17=Metallica - Die Die My Darling
EXTD=
EXTT0=
EXTT1=
EXTT2=
EXTT3=
EXTT4=
EXTT5=
EXTT6=
EXTT7=
EXTT8=
EXTT9=
EXTT10=
EXTT11=
EXTT12=
EXTT13=
EXTT14=
EXTT15=
EXTT16=
EXTT17=
PLAYORDER=
